<svg viewBox="0 0 158.74 158.74" xmlns="http://www.w3.org/2000/svg"><g fill="#2c3659"><path d="m96 95.41 1.21-.88c.29.4 6.37 8.94 5.53 16.94 4.87-7.55 2.28-24.39 2-26.19a12.45 12.45 0 0 1 -1.92.46h-.25l-.22-.13s-2.76-1.5-10.51-2.42c-8.07-1-11.14-5.63-11.14-6.37h.75l.7-.26c0 .05 2.37 4.24 9.87 5.14 6.87.82 10 2.07 10.81 2.47a18.33 18.33 0 0 0 11.36-7.76c3-4.62-.37-9.36-2.54-11.68.29 2.69.38 7.15-1.75 9.48a5 5 0 0 1 -4.59 1.46c-7.49-.94-14.19-5.86-15.41-6.79l-7.84-.57v-.75h-.06l-.38-19.56a10.78 10.78 0 0 0 9.07 5v-1.5a9.43 9.43 0 0 1 -8.32-5.13c2.72.23 8.85.4 12.83-2.22a31.38 31.38 0 0 0 7.8-7.09l-1.22-.87a30.38 30.38 0 0 1 -7.36 6.71c-4.7 3.1-13.11 1.85-13.2 1.84l-1.22-.19.39 1.07h-.3l.52 25.94c-1.31 1-3.1.2-3.79-.14-.17-.94-.31-1.93-.44-3-.39-3.39-.45-6.86-.52-10.21a82.07 82.07 0 0 0 -1-13.89l-1.47.28-.87.13c-.09 0-8.51 1.22-13.16-1.84s-5.66-6.42-5.68-6.48l-.72.21-.72.21c0 .16 1.17 4 6.29 7.32 4 2.62 10.13 2.45 12.84 2.22a9.43 9.43 0 0 1 -8.37 5.13v1.5c7.54 0 10.25-7.19 10.28-7.26l.18-.49a86.11 86.11 0 0 1 .9 13c.07 3.38.13 6.86.52 10.31h-.3l.06.75-5.37.39c-1.21.93-7.92 5.85-15.4 6.79a5 5 0 0 1 -4.62-1.49c-2.14-2.33-2-6.8-1.74-9.49-2.18 2.31-5.6 7-2.55 11.7a18.15 18.15 0 0 0 8.74 7 15.71 15.71 0 0 0 2.63.78c.86-.4 3.94-1.66 10.8-2.48 7.51-.89 9.86-5.1 9.88-5.14l.56.26h.89c0 .75-3.07 5.41-11.15 6.36-7.74.93-10.47 2.42-10.5 2.44l-.22.12h-.25a15 15 0 0 1 -2.34-.6c-.25 1.45-2.32 15.43 5.87 26.19l.07.12s.77 1.08 4.81 2.93c-.64-2.82-1.64-8.92.43-13l1.34.69c-2.45 4.76 0 13.29 0 13.37v.08c.1.27.8 2 3.94 4.08 2.25-6.76 1.35-14.83 1.34-14.92l1.49-.17c0 .37 1 9-1.61 16.16.37.34 1.26 1 2 1.47a30 30 0 0 1 5.55 4.49c2.49 2.88 2.31 5.34 2.26 5.77a4 4 0 0 1 -1.24 2.61c-1.13 1.07-2.88 1.56-5.15 1.46a6.37 6.37 0 0 1 -1.74-.3c1 1.28 2.92 2.15 5.68 2.59a6.7 6.7 0 0 0 5.8-1.43c3.65-3.32 3.24-10.86 3.23-10.94v-.2l.08-.17a17.67 17.67 0 0 0 .86-2.52 22.63 22.63 0 0 0 -3.52-19.64l1.21-.9a24 24 0 0 1 4 19.93c1.25-.31 3.82-1.62 8.13-6.68a9.8 9.8 0 0 0 1.87-3.31c2.72-7.93-4.59-18.2-4.7-18.3z"/><path d="m79.37 0a79.37 79.37 0 1 0 79.37 79.37 79.46 79.46 0 0 0 -79.37-79.37zm0 156.74a77.37 77.37 0 1 1 77.37-77.37 77.46 77.46 0 0 1 -77.37 77.37z"/><path d="m21.24 34.46-1.58-1.22a75.47 75.47 0 0 0 38.51 118.55l.56-1.92a73.48 73.48 0 0 1 -37.49-115.41z"/><path d="m139.06 33.2-1.58 1.23a73.48 73.48 0 0 1 -37.8 115.57l.55 1.92a75.48 75.48 0 0 0 38.83-118.72z"/><path d="m25.52 26.95h.4v5.46h-.4z" transform="matrix(.6794413 -.73372986 .73372986 .6794413 -13.53 28.39)"/><path d="m29.36 29.82-3.53-3.62.91-.88a1.33 1.33 0 0 1 1.89 0 1.34 1.34 0 0 1 0 1.91l-.79.77h3.5v-.4h-2.7a2.7 2.7 0 0 0 .38-.29 1.64 1.64 0 0 0 -.13-2.27 1.72 1.72 0 0 0 -2.46 0l-1.2 1.17 3.81 3.91z"/><path d="m33.79 25.74a1.55 1.55 0 0 0 -1.61-2.6 1.36 1.36 0 0 0 .19-.52 1.16 1.16 0 0 0 -.32-.79 1.38 1.38 0 0 0 -2-.12l-1 .89 3.55 4.16zm-4.18-3.1.74-.62a1 1 0 0 1 1.4.08 1 1 0 0 1 0 1.29l-.89.75zm2.5 1a1.08 1.08 0 0 1 1.51.19 1.12 1.12 0 0 1 -.1 1.61l-.89.76-1.48-1.74z"/><path d="m37.08 23.11.32-.24-.98-1.32-.83-4.02-.4.08.75 3.64-3.26-1.77-.19.36 3.6 1.94z"/><path d="m37.45 18.02-.8-1.31-.42.28.93 1.22z"/><path d="m40.28 17.68c1.23-.39 1.59-.24 1.85.17a1.34 1.34 0 0 1 -.47 1.83 1.26 1.26 0 0 1 -1.81-.45l-.34.23a1.67 1.67 0 0 0 2.36.57 1.75 1.75 0 0 0 .6-2.39c-.35-.56-.87-.8-2.31-.35-.56.18-1.11.22-1.44-.31a1 1 0 0 1 .35-1.48 1.09 1.09 0 0 1 1.54.35l.33-.24a1.49 1.49 0 0 0 -2.09-.45 1.44 1.44 0 0 0 -.46 2.05 1.51 1.51 0 0 0 1.89.47z"/><path d="m45.88 11.81 2.22 4.55.36-.18-2.22-4.55 1.66-.81-.18-.36-3.71 1.81.18.37z"/><path d="m51 12.89 2.37-1 1.63 1.57.27-.29-4.44-4.17-.34 6.13h.4zm.16-3 1.89 1.77-2 .81z"/><path d="m59.03 6.47-.4-.05-.72 5.21-3.53-3.9-.31.28 4.12 4.53z"/><path d="m64.18 10.76-.09-.39-2.29.54-.53-2.22 1.61-.38-.1-.39-1.6.37-.46-1.91 2.02-.47-.1-.4-2.41.57 1.26 5.32z"/><path d="m66.1 10.38-.84-5 1.25-.21a1.33 1.33 0 0 1 1.54 1.09 1.34 1.34 0 0 1 -1.05 1.6l-1.1.14 2.85 2 .25-.26-2.2-1.57a2.07 2.07 0 0 0 .47 0 1.63 1.63 0 0 0 1.19-1.94 1.72 1.72 0 0 0 -2-1.43l-1.65.28.91 5.39z"/><path d="m70.52 9.68.4-.04-.41-4.51 4.37 4.33-.52-5.62-.4.04.41 4.51-4.36-4.33z"/><path d="m89.45 8 2.55.43.6 2.15.39-.11-1.65-5.9-3.47 5 .34.24zm1.71-2.5.7 2.5-2.16-.36z"/><path d="m95.19 11.1.39.1 1.2-4.93 1.79.44.1-.39-4.02-.98-.09.4 1.82.44z"/><path d="m101.47 12.89.11-.39-2.75-.85 1.5-4.83-.39-.12-1.62 5.22z"/><path d="m103.92 11.73 2.38.93.14 2.23h.4l-.38-6.12-4.46 4.23.28.3zm2.19-2.09.16 2.58-2-.8z"/><path d="m110.25 11.55 1.47 5.97 2.49-5.06-.36-.18-2.01 4.07-1.46-5.98-2.5 5.07.36.17z"/><path d="m114.59 18.98 2.57-4.36 1.59.94.21-.35-3.56-2.09-.21.34 1.62.96-2.57 4.36z"/><path d="m120.88 23 1-6-5.3 3.08.2.35 1.94-1.12 2.1 1.45-.34 2.24zm-1.74-4 2.23-1.3-.43 2.54z"/><path d="m127.82 28.13 1.1-1.22-1.5-1.35-.27.3 1.2 1.08-.72.79a2.47 2.47 0 1 1 2.53-2.59h.4a2.88 2.88 0 1 0 -2.74 3z"/><path d="m131.69 33.05 2.31-5.69-5.83 1.91.13.39 2.12-.7 1.76 1.86-.83 2.08zm-.88-4.23 2.45-.81-1 2.4z"/><circle cx="80.65" cy="6.32" r="1"/><path d="m64.6 154.13 2.74.41.06-.4-2.34-.35.34-2.26 1.63.24.07-.4-1.64-.24.29-1.95 2.06.31.05-.4-2.45-.37z"/><path d="m70.89 149.75a1.1 1.1 0 0 1 1 1.21h.4a1.49 1.49 0 0 0 -1.38-1.64 1.44 1.44 0 0 0 -1.62 1.34c-.09.83.53 1.28 1.21 1.53 1.21.45 1.4.79 1.35 1.27a1.34 1.34 0 0 1 -1.49 1.16 1.27 1.27 0 0 1 -1.16-1.47h-.4a1.65 1.65 0 0 0 1.52 1.85 1.73 1.73 0 0 0 2-1.52c.06-.66-.2-1.16-1.62-1.69-.55-.2-1-.51-1-1.12a1 1 0 0 1 1.19-.92z"/><path d="m73.23 150.08 1.88.09-.26 5.05.4.02.26-5.05 1.84.1.02-.41-4.12-.21z"/><path d="m81.82 154.94 1-1.8a1.24 1.24 0 0 0 .15-.68 1.25 1.25 0 0 0 -2.16-.78l.28.26a.83.83 0 0 1 .6-.28.85.85 0 0 1 .91.82 1 1 0 0 1 -.12.48l-1.24 2.38 2.28-.07v-.37z"/><path d="m86.19 151.06a1.9 1.9 0 0 0 -1.57 2.22 1.78 1.78 0 1 0 1.57-2.22zm.32 3.76a1.74 1.74 0 1 1 1.22-1.82 1.55 1.55 0 0 1 -1.22 1.82z"/><path d="m89.82 150.8h.37v3.93h-.37z" transform="matrix(.99256741 -.12169611 .12169611 .99256741 -17.92 12.09)"/><path d="m94.67 151.31a1.4 1.4 0 0 0 -1-.4 1.5 1.5 0 0 0 .38-.34 1 1 0 0 0 .16-.82 1.24 1.24 0 0 0 -1.45-1 1.27 1.27 0 0 0 -1 1.49 1 1 0 0 0 .88.88 1.57 1.57 0 0 0 -.93 1.8 1.75 1.75 0 0 0 3.45-.62 1.82 1.82 0 0 0 -.49-.99zm-2.54-1.17a.9.9 0 0 1 .74-1 .85.85 0 0 1 1 .72.89.89 0 0 1 -1.75.32zm1.56 3.79a1.38 1.38 0 0 1 -1.6-1.11 1.38 1.38 0 1 1 1.6 1.11z"/></g></svg>